<?xml version="1.0" encoding="utf-8"?>
<!-- Generator: Adobe Illustrator 17.1.0, SVG Export Plug-In . SVG Version: 6.00 Build 0)  -->
<!DOCTYPE svg PUBLIC "-//W3C//DTD SVG 1.1//EN" "http://www.w3.org/Graphics/SVG/1.1/DTD/svg11.dtd">
<svg version="1.1" id="Layer_1" xmlns="http://www.w3.org/2000/svg" xmlns:xlink="http://www.w3.org/1999/xlink" x="0px" y="0px"
	 viewBox="0 0 120 120" enable-background="new 0 0 120 120" xml:space="preserve">
<path fill="#FFFFFF" d="M113,54h-8.5l6.5-25.9c1-4,1.1-5.3,0.7-7.4c-0.8-3.2-4.4-5.7-8.3-5.7c-2.3,0-4.3,0.9-5.6,2.3
	c-1.4,1.6-1.8,3-2.8,6.8l-11.9,48L68.8,22.4c-0.7-2.3-1.6-4-2.8-5.3c-1.5-1.4-3.2-2-5.8-2c-2.5,0-4.3,0.6-5.8,2
	c-1.3,1.3-2.1,3-2.8,5.3L37.2,72.2l-11.9-48c-0.9-3.8-1.4-5.2-2.8-6.8c-1.3-1.5-3.3-2.3-5.6-2.3c-3.9,0-7.5,2.5-8.3,5.8
	c-0.4,2.1-0.3,3.3,0.7,7.3L15.8,54H7.2C3.2,54,0,57.6,0,61.5S3.2,69,7.2,69h12.2l7,27.8c0.8,3.1,1.8,5.7,4.1,7.4
	c1.6,1.3,3.7,1.9,6,1.9c2.3,0,4.4-0.8,6-2.1c2.2-1.8,3.2-4.6,4.1-7.6l13.6-46.8l13.6,46.8c0.9,3,1.9,5.8,4.1,7.6c1.6,1.3,3.7,2,6,2
	c2.3,0,4.4-0.8,6-2c2.3-1.8,3.3-4.2,4.1-7.3l7-27.8h12c3.9,0,7.1-3.6,7.1-7.5S117,54,113,54z"/>
</svg>
