<?xml version="1.0" encoding="utf-8"?>
<!-- Generator: Adobe Illustrator 18.1.0, SVG Export Plug-In . SVG Version: 6.00 Build 0)  -->
<svg version="1.1" id="Layer_1" xmlns="http://www.w3.org/2000/svg" xmlns:xlink="http://www.w3.org/1999/xlink" x="0px" y="0px"
	 viewBox="0 0 800 600" enable-background="new 0 0 800 600" xml:space="preserve">
<path fill="#FFFFFF" d="M749.5,256.6h-56.1l42.9-170.8c6.6-26.4,7.3-35,4.6-48.8c-5.3-21.1-29-37.6-54.7-37.6
	c-15.2,0-28.4,5.9-36.9,15.2c-9.2,10.6-11.9,19.8-18.5,44.8l-78.5,316.6L458,48.1c-4.6-15.2-10.6-26.4-18.5-35
	C429.6,4,418.4,0,401.2,0c-16.5,0-28.4,4-38.3,13.2c-8.6,8.6-13.8,19.8-18.5,35l-95,328.4L171.1,60c-5.9-25.1-9.2-34.3-18.5-44.8
	C144,5.3,130.8,0,115.7,0C90,0,66.2,16.5,60.9,38.3c-2.6,13.8-2,21.8,4.6,48.1l42.9,170.2H51.7c-26.4,0-47.5,23.7-47.5,49.5
	c0,25.7,21.1,49.5,47.5,49.5h80.5l46.2,183.3c5.3,20.4,11.9,37.6,27,48.8c10.6,8.6,24.4,12.5,39.6,12.5c15.2,0,29-5.3,39.6-13.8
	c14.5-11.9,21.1-30.3,27-50.1l89.7-308.7l89.7,308.7c5.9,19.8,12.5,38.3,27,50.1c10.6,8.6,24.4,13.2,39.6,13.2
	c15.2,0,29-5.3,39.6-13.2c15.2-11.9,21.8-27.7,27-48.1l46.2-183.3h79.1c25.7,0,46.8-23.7,46.8-49.5
	C796.3,279.6,775.8,256.6,749.5,256.6z"/>
</svg>
