<?xml version="1.0" encoding="utf-8"?>
<!-- Generator: Adobe Illustrator 17.1.0, SVG Export Plug-In . SVG Version: 6.00 Build 0)  -->
<!DOCTYPE svg PUBLIC "-//W3C//DTD SVG 1.1//EN" "http://www.w3.org/Graphics/SVG/1.1/DTD/svg11.dtd">
<svg version="1.1" id="Layer_1" xmlns="http://www.w3.org/2000/svg" xmlns:xlink="http://www.w3.org/1999/xlink" x="0px" y="0px"
	 viewBox="0 0 80.9 61.4" enable-background="new 0 0 80.9 61.4" xml:space="preserve">
<path fill="#00353B" d="M76.1,26.1h-5.7l4.4-17.4c0.7-2.7,0.8-3.5,0.5-4.9C74.7,1.7,72.3,0,69.6,0c-1.5,0-2.9,0.6-3.7,1.6
	C65,2.7,64.7,3.6,64,6.2l-8,32.4L46.3,5c-0.5-1.6-1.1-2.7-1.9-3.6c-1-0.9-2.2-1.4-3.9-1.4s-2.9,0.4-3.9,1.4c-0.9,0.9-1.4,2-1.9,3.6
	L25,38.6l-8-32.4c-0.6-2.6-0.9-3.5-1.9-4.6c-0.9-1-2.2-1.6-3.7-1.6C8.7,0,6.3,1.7,5.8,3.9C5.5,5.3,5.5,6,6.2,8.8l4.4,17.4H4.8
	c-2.6,0-4.8,2.4-4.8,5s2.1,5,4.8,5H13l4.7,18.8c0.5,2.1,1.2,3.9,2.8,5.1c1.1,0.9,2.5,1.3,4,1.3c1.6,0,3-0.5,4-1.4
	c1.5-1.2,2.2-3.1,2.8-5.1l9.2-31.5l9.2,31.5c0.6,2,1.3,3.9,2.8,5.1c1.1,0.9,2.5,1.4,4,1.4c1.6,0,3-0.5,4-1.4c1.5-1.2,2.3-2.9,2.8-5
	L68,36.1h8.1c2.6,0,4.8-2.4,4.8-5S78.7,26.1,76.1,26.1z"/>
</svg>
