<?xml version="1.0" encoding="utf-8"?>
<!-- Generator: Adobe Illustrator 18.1.0, SVG Export Plug-In . SVG Version: 6.00 Build 0)  -->
<svg version="1.1" id="Layer_1" xmlns="http://www.w3.org/2000/svg" xmlns:xlink="http://www.w3.org/1999/xlink" x="0px" y="0px"
	 viewBox="-89.3 527.4 178.6 145.3" enable-background="new -89.3 527.4 178.6 145.3" xml:space="preserve">
<path fill="#FFFFFF" d="M89.3,544.5c-6.6,2.9-13.7,4.9-21,5.8c7.6-4.5,13.4-11.7,16.1-20.3c-7.1,4.2-14.9,7.3-23.3,8.9
	c-6.7-7.1-16.2-11.6-26.7-11.6c-20.3,0-36.7,16.4-36.7,36.7c0,2.9,0.3,5.7,1,8.4c-30.5-1.5-57.5-16.1-75.6-38.3
	c-3.1,5.4-5,11.7-5,18.4c0,12.7,6.5,23.9,16.3,30.5c-6-0.2-11.6-1.8-16.6-4.6c0,0.1,0,0.3,0,0.5c0,17.8,12.6,32.5,29.4,35.9
	c-3.1,0.8-6.3,1.3-9.7,1.3c-2.4,0-4.6-0.3-6.9-0.7C-64.6,630.1-51,640.7-35,641c-12.5,9.8-28.4,15.7-45.6,15.7
	c-2.9,0-5.9-0.2-8.8-0.5c16.2,10.4,35.5,16.5,56.2,16.5c67.5,0,104.3-55.9,104.3-104.3c0-1.6-0.1-3.2-0.1-4.8
	C78.2,558.3,84.4,551.9,89.3,544.5z"/>
</svg>
